<svg width="1357" height="358" viewBox="0 0 1357 358" fill="none" xmlns="http://www.w3.org/2000/svg">
<path fill-rule="evenodd" clip-rule="evenodd" d="M530.685 1.235C529.018 2.514 525.907 15.271 525.907 20.826C525.907 26.63 532.802 32.003 540.25 32.003C543.266 32.003 543.729 32.362 544.282 35.128C545.1 39.219 545.075 71.125 544.228 102.503L543.554 127.503L539.761 119.503C537.676 115.103 533.879 106.553 531.324 100.503C526.17 88.3 519.855 75.506 510.149 57.602C506.6 51.057 501.005 40.495 497.715 34.131C492.154 23.375 483.273 9.51601 478.569 4.25301C476.735 2.20101 475.717 2.01201 466.983 2.10201C461.716 2.15601 454.941 2.49401 451.926 2.85201L446.446 3.50301L445.238 10.503C443.544 20.316 443.578 28.485 445.318 29.929C446.094 30.573 448.324 31.359 450.275 31.675C455.968 32.599 457.355 34.984 457.757 44.533C457.949 49.109 457.602 86.3 456.985 127.178C455.65 215.686 455.618 215.963 446.345 219.023C443.362 220.008 442.893 220.698 441.727 225.811C441.013 228.942 440.424 235.186 440.418 239.687C440.408 247.387 440.581 248.053 443.344 250.937C446.815 254.56 447.75 254.639 455.5 251.966C463.193 249.312 486.072 243.398 492.185 242.483C497.793 241.643 498.14 241.136 500.294 230.646C502.648 219.179 502.458 217.548 498.157 212.358C494.602 208.068 494.199 207.862 490.407 208.404C488.207 208.719 485.329 209.277 484.012 209.644L481.616 210.312L482.247 167.408C482.594 143.81 482.885 113.936 482.892 101.021L482.907 77.539L485.515 81.376C489.465 87.19 523.874 156.566 530.712 172.503C540.105 194.398 542.052 201.456 542.571 215.503C543.092 229.588 543.487 232.003 545.271 232.003C546 232.003 547.454 232.955 548.502 234.119C550.219 236.025 551.095 236.171 557.374 235.591C569.738 234.451 568.573 239.368 569.286 185.308C571.08 49.169 571.379 37.701 573.214 34.267C574.305 32.227 575.953 30.82 577.675 30.458C582.45 29.455 583.38 28.434 584.561 22.906C586.649 13.123 586.272 9.63801 582.607 4.83101L579.307 0.503008L555.822 0.235003C538.054 0.0330025 531.935 0.276003 530.685 1.235ZM650.562 0.753008C650.307 1.16601 648.65 8.46601 646.88 16.977C645.109 25.488 642.553 36.063 641.198 40.477C639.844 44.891 636.99 56.603 634.857 66.503C632.724 76.403 629.83 88.553 628.426 93.503C627.021 98.453 622.283 116.228 617.896 133.003C606.323 177.254 604.563 183.181 601.218 189.136C598.713 193.595 597.489 194.734 593.98 195.872C589.022 197.478 588.396 198.64 586.536 209.687C584.703 220.58 585.126 222.258 590.358 224.871C594.24 226.81 596.198 226.997 612.017 226.941C631.873 226.871 643.366 225.944 645.032 224.278C646.538 222.772 649.692 207.331 649.113 204.3C648.865 203.003 647.705 201.435 646.535 200.814C645.364 200.193 643.819 198.857 643.1 197.844C642.382 196.832 640.807 195.997 639.6 195.989C633.965 195.954 632.907 195.028 632.911 190.136C632.917 183.211 635.423 169.058 639.904 150.637C642.106 141.587 643.907 133.475 643.907 132.612C643.907 130.44 646.4 130.043 661.858 129.754L675.309 129.503L678.083 141.003C681.843 156.583 685.907 180.017 685.907 186.11C685.907 193.385 683.04 196.003 675.075 196.003C671.481 196.003 668.734 196.507 668.089 197.284C667.505 197.988 666.263 202.736 665.33 207.836C663.267 219.11 663.876 221.011 670.481 223.933C674.805 225.845 677.037 226.002 699.784 225.988C713.327 225.979 725.031 225.577 725.794 225.094C727.273 224.157 729.809 212.859 729.87 206.934C729.902 203.886 729.176 202.718 724.896 198.934C719.176 193.875 717.877 190.491 712.892 167.651C707.643 143.607 705.819 135.572 703.811 127.666C702.716 123.355 700.281 112.33 698.399 103.166C696.518 94.001 692.916 77.503 690.395 66.503C687.874 55.503 684.253 38.853 682.348 29.503C678.219 9.23101 677.49 6.85001 674.232 2.97801C671.753 0.031014 671.632 0.00300791 661.377 0.00300791C655.683 0.00300791 650.816 0.340008 650.562 0.753008ZM790.98 2.312C789.084 7.299 787.8 19.591 788.879 22.428C790.19 25.878 793.479 28.723 797.407 29.803C799.057 30.257 800.968 31.725 801.653 33.066C802.971 35.645 803.086 83.899 801.951 158.049C801.327 198.832 801.366 198.639 793.674 199.195C789.445 199.501 789.402 199.542 788.255 204.503C787.619 207.253 787.056 212.745 787.003 216.707L786.907 223.911L791.335 227.293C795.452 230.436 796.594 230.761 807.585 231.915C814.087 232.597 825.932 234.298 833.907 235.695C843.612 237.394 852.541 238.278 860.907 238.369C872.712 238.496 873.724 238.347 879.11 235.703C889.505 230.598 897.466 219.265 902.45 202.476C905.699 191.535 906.867 169.921 904.99 155.503C901.832 131.238 891.022 110.702 876.039 100.501L869.671 96.166L875.444 90.834C882.875 83.971 888.432 75.376 891.084 66.648C892.873 60.756 893.106 58.102 892.629 49.06C891.638 30.267 887.742 20.142 877.713 10.292C873.347 6.00401 871.344 4.82101 866.407 3.61501C860.312 2.12601 822.699 -0.00698282 802.632 1.71852e-05C792.299 0.00301719 791.822 0.0979984 790.98 2.312ZM398.407 5.019C390.707 5.426 382.157 5.82101 379.407 5.89601C376.657 5.97201 373.786 6.42701 373.026 6.90801C371.386 7.94701 369.034 20.204 368.96 28.098C368.89 35.553 370.926 37.503 378.781 37.503C384.333 37.503 384.432 37.554 386.321 41.423C388.185 45.243 388.204 47.097 387.034 113.423C386.373 150.867 385.404 186.003 384.88 191.503C383.188 209.256 377.355 223.649 368.567 231.748C361.855 237.935 358.413 239.411 350.578 239.46C342.639 239.51 341.802 238.815 339.187 230.003C337.097 222.961 337.061 214.846 338.735 126.003C340.163 50.242 340.433 46.854 345.296 43.668C346.617 42.802 348.837 41.808 350.229 41.458C354.258 40.447 356.02 37.627 357.512 29.807C359.671 18.485 359.396 14.833 356.157 11.812C354.645 10.402 352.507 8.788 351.407 8.226C348.75 6.869 301.108 8.40202 299.618 9.89202C298.517 10.993 295.037 30.162 294.954 35.579C294.892 39.613 298.463 43.003 302.772 43.003C308.234 43.003 308.91 46.232 308.89 72.221C308.881 84.476 308.445 110.703 307.923 130.503C307.4 150.303 306.872 182.703 306.75 202.503C306.508 241.54 307.243 249.574 312.34 263.614C317.837 278.759 328.526 287.814 342.051 288.781C350.239 289.367 359.116 286.863 369.607 281.009C389.977 269.64 403.149 248.549 409.409 217.277C412.588 201.393 413.528 182.274 414.907 105.503C415.476 73.835 416.369 47.565 416.962 45.042C418.288 39.407 419.467 38.003 422.874 38.003C427.697 38.003 429.355 34.284 431.375 18.932C432.06 13.723 430.288 10.627 424.641 7.162C420.378 4.547 415.249 4.128 398.407 5.019ZM973.059 9.11702C972.563 10.429 971.415 16.228 970.507 22.003C969.599 27.778 967.761 37.228 966.421 43.003C965.081 48.778 962.194 61.828 960.006 72.003C948.715 124.49 944.682 143.051 943.383 148.503C942.597 151.803 940.339 161.928 938.366 171.003C933.768 192.147 929.244 209.45 927.364 213.086C925.533 216.627 923.065 218.003 918.544 218.003C915.183 218.003 914.992 218.204 913.565 223.253C911.4 230.916 910.538 240.445 911.797 242.798C913.798 246.537 923.41 250.722 946.407 257.869C959.057 261.8 969.914 265.013 970.535 265.009C972.734 264.997 973.987 262.12 975.453 253.719C977.133 244.095 976.73 242.155 971.775 235.988C969.821 233.557 967.077 231.557 964.52 230.7L960.407 229.322L960.453 218.412C960.484 211.002 961.379 202.692 963.244 192.503C967.467 169.419 970.106 157.002 970.787 157.008C971.128 157.011 976.653 158.127 983.066 159.488C995.623 162.153 999.511 163.529 1000.3 165.583C1000.58 166.303 1003.35 180.755 1006.46 197.698C1012.62 231.2 1013.5 240.831 1010.68 243.656C1009.05 245.285 1008.65 245.288 1003.59 243.693C996.769 241.542 994.172 241.558 993.53 243.753C992.226 248.214 990.907 257.898 990.907 263.012C990.907 270.288 992.257 271.54 1005.91 276.924C1011.68 279.201 1020.01 282.859 1024.41 285.052C1035.38 290.52 1052.63 297.047 1054.36 296.384C1056.1 295.714 1057.7 288.591 1058.53 277.719L1059.16 269.503L1054.94 265.503C1052.61 263.303 1050.11 260.123 1049.37 258.436C1047.83 254.909 1042.86 233.732 1040.46 220.503C1039.56 215.553 1036.6 199.803 1033.87 185.503C1031.14 171.203 1028.49 157.253 1027.96 154.503C1027.44 151.753 1025.64 142.303 1023.96 133.503C1022.28 124.703 1019.09 107.828 1016.86 96.003C1014.64 84.178 1011.29 66.628 1009.41 57.003C1007.53 47.378 1005.33 35.605 1004.52 30.842C1002.9 21.344 1000.63 16.054 996.08 11.188C993.622 8.55701 992.349 8.00101 988.756 7.99401C986.364 7.99001 982.057 7.70302 979.184 7.35802C974.327 6.77502 973.898 6.89802 973.059 9.11702ZM206.907 13.056C199.482 13.447 191.382 13.827 188.907 13.9C186.432 13.974 183.873 14.373 183.22 14.788C181.846 15.662 177.907 37.537 177.907 44.293C177.907 49.654 179.757 52.003 183.978 52.003C185.589 52.003 187.796 52.892 188.882 53.978C190.791 55.887 191.225 57.101 192.28 63.503C192.553 65.153 192.378 79.778 191.893 96.003C191.408 112.228 190.499 145.078 189.875 169.003C187.419 263.056 186.164 293.22 184.481 298.659C182.99 303.476 177.478 310.003 174.9 310.003C172.637 310.003 168.463 332.761 169.057 341.86C169.38 346.809 169.714 347.438 173.452 350.14L177.497 353.063L186.452 348.91C209.492 338.224 244 323.461 252.662 320.584L257.766 318.889L262.004 321.564L266.241 324.239L270.528 322.157C272.885 321.011 275.474 319.046 276.28 317.788C278.139 314.889 285.359 275.196 289.367 245.837C290.607 236.755 285.445 230.134 278.161 231.465C272.067 232.579 270.373 234.275 268.461 241.175C262.533 262.574 252.437 278.506 240.297 285.62C235.354 288.517 224.731 291.984 220.762 291.995C218.392 292.002 218.066 291.561 217.629 287.753C217.166 283.719 218.552 212.096 220.895 119.003C222.377 60.098 223.358 52.738 229.897 51.412C237.585 49.853 238.442 49.397 240.108 45.986C242.131 41.843 244.281 25.847 243.429 21.282C243.098 19.511 241.68 16.699 240.278 15.032C237.776 12.058 237.571 12.006 229.068 12.174C224.304 12.269 214.332 12.666 206.907 13.056ZM1071.57 14.61C1070.57 18.002 1068.91 32.026 1068.91 37.141C1068.91 42.959 1070.24 46.003 1072.79 46.003C1073.78 46.003 1075.41 46.903 1076.41 48.003C1077.4 49.103 1078.77 50.003 1079.44 50.003C1082.6 50.003 1083.19 59.046 1083.48 112.503C1083.63 141.653 1083.88 186.878 1084.03 213.003C1084.33 266.965 1084.36 266.651 1078 265.634C1075.46 265.227 1073.81 265.441 1073.16 266.26C1071.63 268.184 1069.58 286.365 1070.33 291.334C1070.7 293.775 1071.85 296.547 1072.9 297.493C1075.98 300.282 1095.94 310.525 1120.7 322.021C1128.82 325.786 1130.19 326.152 1131.45 324.891C1133.27 323.065 1136.18 302.954 1135.29 298.247C1134.57 294.374 1127.69 287.202 1121.23 283.59C1117.83 281.683 1117.29 280.834 1116.29 275.817C1115.62 272.428 1114.99 252.659 1114.72 226.191L1114.28 182.198L1117.72 180.558C1119.61 179.655 1121.28 179.049 1121.43 179.21C1122.12 179.932 1128.12 200.942 1131.8 215.503C1140.95 251.725 1155.91 313.198 1157.94 323.003C1159.14 328.778 1160.79 334.937 1161.6 336.69C1163.32 340.412 1171.26 345.859 1184.41 352.334C1195.68 357.885 1197.03 358.288 1200.28 357.053C1202.89 356.06 1202.91 355.977 1202.85 345.778C1202.79 335.578 1201.61 329.554 1197.25 317.296C1195.24 311.649 1194.29 310.375 1190.78 308.624C1189.43 307.953 1188.1 306.033 1187.57 303.99C1187.08 302.072 1185.34 297.197 1183.72 293.156C1182.1 289.115 1180.75 284.84 1180.73 283.656C1180.69 281.151 1177.64 270.55 1170.89 249.503C1165.65 233.136 1154.55 193.883 1150.29 176.657L1147.61 165.811L1154.59 159.157C1172.17 142.396 1178.17 125.229 1178.05 92.003C1177.96 66.442 1175.2 55.548 1164.43 38.22C1158.04 27.936 1151.09 21.025 1145.28 19.189C1139.94 17.502 1107.77 14.239 1088.27 13.407C1072.98 12.754 1072.1 12.817 1071.57 14.61ZM851.846 30.595C857.883 33.011 861.005 39.026 861.659 49.504C862.115 56.821 861.891 58.358 859.655 63.243C856.454 70.235 851.819 75.342 840.744 84.078L831.907 91.048L831.911 63.776C831.914 38.575 832.061 36.262 833.849 33.331C834.913 31.586 836.824 29.96 838.095 29.717C843.106 28.76 848.048 29.076 851.846 30.595ZM1138.42 59.298C1145.55 67.553 1148.77 86.518 1145.52 101.131C1142.11 116.457 1135.29 126.367 1121.44 136.126L1114.41 141.083L1114.15 101.297C1113.9 63.9 1114 61.362 1115.74 59.031C1118.16 55.783 1121.02 55.005 1128.91 55.448C1134.88 55.783 1135.64 56.091 1138.42 59.298ZM665.389 81.341C667.324 91.081 668.907 99.489 668.907 100.026C668.907 100.586 665.233 101.003 660.29 101.003C651.838 101.003 651.686 100.96 652.293 98.753C653.035 96.056 659.75 68.504 660.487 65.135C660.771 63.833 661.199 62.962 661.437 63.2C661.676 63.438 663.454 71.602 665.389 81.341ZM988.81 104.003C990.536 114.178 992.23 123.566 992.574 124.864C993.162 127.087 992.999 127.187 989.803 126.567C977.639 124.206 976.729 123.848 977.278 121.634C977.827 119.416 981.232 101.118 983.125 90.208C983.726 86.746 984.545 84.271 984.945 84.708C985.345 85.145 987.084 93.828 988.81 104.003ZM860.805 121.54C870.061 132.082 873.508 147.424 871.852 170.707C871.225 179.529 870.242 185.705 868.892 189.313C863.801 202.921 856.246 208.834 845.384 207.713C842.286 207.393 838.624 206.393 837.246 205.489C832.189 202.176 831.907 199.892 831.907 162.209V127.352L834.157 125.264C838.884 120.879 845.932 118.003 851.952 118.003C857.28 118.003 857.926 118.261 860.805 121.54Z" fill="#FFE066"/>
<path fill-rule="evenodd" clip-rule="evenodd" d="M48.6875 124.397C48.6875 124.616 48.1515 124.794 47.496 124.794C46.7946 124.794 46.0259 125.121 45.6269 125.588C45.254 126.025 44.766 126.39 44.5423 126.399C44.3183 126.409 43.7131 127.079 43.1965 127.889C42.3367 129.237 42.2738 129.67 42.4484 133.026C42.5529 135.041 42.8193 136.918 43.0394 137.195C43.2598 137.473 43.5666 139.041 43.7206 140.679C43.875 142.317 44.236 143.925 44.5229 144.253C44.8356 144.609 45.1028 146.177 45.1887 148.16C45.3 150.733 45.4852 151.584 46.02 151.976C46.6181 152.415 46.7083 153.223 46.7083 158.152C46.7083 163.087 46.6185 163.891 46.0156 164.35C45.6348 164.64 44.9785 164.883 44.5574 164.89C43.6838 164.904 40.4383 163.415 39.6542 162.64C39.3664 162.355 38.8269 162.123 38.4556 162.123C38.0839 162.123 37.4751 161.765 37.1022 161.329C36.7294 160.892 35.9963 160.534 35.4734 160.534C34.9501 160.534 34.4232 160.276 34.3029 159.96C34.1822 159.645 33.463 159.27 32.7045 159.127C31.9461 158.984 31.2297 158.617 31.1129 158.311C30.9957 158.005 30.4491 157.755 29.8977 157.755C29.3467 157.755 28.5396 157.397 28.1042 156.96C27.6688 156.523 26.9958 156.166 26.6087 156.166C26.2216 156.166 25.6001 155.809 25.2272 155.372C24.8544 154.935 24.1213 154.578 23.5984 154.578C23.0751 154.578 22.5483 154.319 22.4279 154.004C22.3072 153.688 21.588 153.313 20.8295 153.171C20.0711 153.028 19.3547 152.661 19.2379 152.355C19.1207 152.048 18.58 151.798 18.0369 151.798C17.4539 151.798 16.8752 151.472 16.625 151.004C16.3919 150.567 15.9402 150.209 15.6216 150.209C15.3025 150.209 15.0417 149.945 15.0417 149.621C15.0417 148.846 13.471 148.48 11.1126 148.708C9.56967 148.856 8.97117 149.15 7.97882 150.246C7.30432 150.99 6.74698 152.001 6.74064 152.493C6.73431 152.986 6.48216 153.386 6.17777 153.386C5.59985 153.386 5.14583 154.211 5.14583 155.261C5.14583 155.601 4.86044 156.089 4.51171 156.345C4.15744 156.605 3.78614 157.628 3.66937 158.666C3.55497 159.686 3.21655 160.725 2.91809 160.974C2.61923 161.222 2.375 161.811 2.375 162.282C2.375 162.753 2.01875 163.444 1.58333 163.818C0.906854 164.399 0.791667 164.989 0.791667 167.877C0.791667 169.865 0.628583 171.256 0.395833 171.256C0.165063 171.256 0 172.579 0 174.43C0 177.122 0.131018 177.755 0.862914 178.6C1.56868 179.414 2.08604 179.596 3.70183 179.596C5.00848 179.596 5.92998 179.825 6.42358 180.273C7.0201 180.815 8.17712 180.985 12.1869 181.119C15.2336 181.22 17.5176 181.482 18.0029 181.784C18.4427 182.057 20.4626 182.391 22.4924 182.525C24.7843 182.676 26.505 182.995 27.0334 183.366C27.6775 183.819 29.0494 183.964 32.6752 183.964C37.2717 183.964 37.504 184.004 38.3942 184.955C38.9049 185.5 39.2477 186.028 39.1562 186.129C38.5122 186.834 25.9659 199.434 23.5176 201.834C19.9876 205.294 17.0208 208.692 17.0208 209.276C17.0208 209.5 16.6646 209.777 16.2292 209.891C15.7938 210.005 15.4375 210.384 15.4375 210.732C15.4375 211.08 15.183 211.365 14.8722 211.365C14.48 211.365 14.2227 212.063 14.0319 213.648C13.8803 214.904 13.585 216.147 13.3752 216.411C13.1207 216.73 13.203 217.19 13.6218 217.79C13.9674 218.285 14.25 218.936 14.25 219.239C14.25 219.541 14.6945 220.318 15.2376 220.965C16.4532 222.415 20.3854 225.661 20.9257 225.661C21.1434 225.661 21.4348 226.018 21.5729 226.455C21.7111 226.892 22.0792 227.249 22.3911 227.249C22.703 227.249 22.9583 227.396 22.9583 227.576C22.9583 227.963 26.0193 230.029 26.5929 230.029C26.811 230.029 27.4427 230.386 27.9961 230.823C28.5499 231.26 29.3142 231.617 29.6946 231.617C30.0754 231.617 30.48 231.975 30.594 232.412C30.7178 232.887 31.1339 233.206 31.6295 233.206C32.0855 233.206 32.4583 233.384 32.4583 233.603C32.4583 233.821 33.1708 234 34.0417 234C34.9125 234 35.625 233.821 35.625 233.603C35.625 233.384 35.9504 233.206 36.3478 233.206C37.1078 233.206 38.7917 231.657 38.7917 230.959C38.7917 230.733 39.1479 230.225 39.5833 229.83C40.0188 229.435 40.375 228.765 40.375 228.342C40.375 227.919 40.7313 227.118 41.1667 226.563C41.6021 226.008 41.9583 225.231 41.9583 224.836C41.9583 224.442 42.1547 223.998 42.3945 223.849C42.6344 223.7 43.0821 222.975 43.3893 222.237C43.6968 221.499 44.1156 220.895 44.3207 220.895C44.5257 220.895 44.8103 220.27 44.9532 219.505C45.102 218.709 45.448 218.116 45.7627 218.116C46.1237 218.116 46.3125 217.654 46.3125 216.772C46.3125 215.762 46.5092 215.377 47.1042 215.221C47.5396 215.107 47.8958 214.712 47.8958 214.343C47.8958 213.975 48.2521 213.22 48.6875 212.664C49.1229 212.109 49.4792 211.343 49.4792 210.963C49.4792 210.582 49.7464 210.048 50.0729 209.776C50.3995 209.504 50.6667 209.063 50.6667 208.796C50.6667 208.528 51.0229 207.897 51.4583 207.394C51.8938 206.89 52.25 206.22 52.25 205.906C52.25 205.592 52.6063 204.88 53.0417 204.325C53.4771 203.769 53.8333 203.071 53.8333 202.773C53.8333 202.475 54.1896 201.874 54.625 201.437C55.0604 201 55.4167 200.28 55.4167 199.836C55.4167 199.392 55.6886 198.925 56.0211 198.796C56.8397 198.482 57.7917 198.609 57.7917 199.836C57.7917 200.375 58.9348 202.841 59.375 203.117C59.8104 203.39 60.1667 203.995 60.1667 204.462C60.1667 204.929 60.4153 205.518 60.7189 205.771C61.0229 206.023 61.3941 206.894 61.5442 207.706C61.6942 208.517 62.0481 209.449 62.3303 209.776C62.6129 210.104 62.966 210.774 63.1152 211.265C63.2644 211.757 63.6417 212.159 63.9536 212.159C64.3336 212.159 64.5208 212.6 64.5208 213.495C64.5208 214.23 64.8771 215.286 65.3125 215.841C65.7479 216.396 66.1042 217.212 66.1042 217.653C66.1042 218.095 66.3737 218.726 66.7031 219.057C67.0328 219.387 67.4144 220.22 67.5513 220.906C67.6879 221.593 68.0418 222.248 68.3375 222.362C68.6332 222.476 68.875 222.998 68.875 223.523C68.875 224.048 69.2313 224.783 69.6667 225.157C70.1021 225.531 70.4583 226.237 70.4583 226.726C70.4583 227.215 70.7782 227.935 71.1693 228.326C71.5599 228.716 72.0931 229.483 72.3536 230.029C73.0233 231.431 73.7564 232.561 74.2188 232.902C74.4365 233.062 76.2624 233.196 78.276 233.2C81.4146 233.205 82.0507 233.092 82.7292 232.412C83.1646 231.975 83.6926 231.617 83.9028 231.617C84.1126 231.617 84.4752 231.26 84.7083 230.823C84.9415 230.386 85.3769 230.029 85.6762 230.029C86.3578 230.029 89.4583 228.018 89.4583 227.576C89.4583 227.396 89.8146 227.249 90.25 227.249C90.6854 227.249 91.367 226.923 91.7645 226.524C92.1623 226.125 92.7857 225.684 93.1499 225.544C93.5144 225.403 93.8125 225.015 93.8125 224.68C93.8125 224.346 94.0286 224.072 94.2927 224.072C94.5567 224.072 95.699 223.089 96.8315 221.888C97.9636 220.687 99.0838 219.704 99.3201 219.704C99.5564 219.704 99.75 219.322 99.75 218.854C99.75 218.387 100.062 217.77 100.443 217.484C101.103 216.989 101.103 216.904 100.443 215.721C100.062 215.037 99.75 214.23 99.75 213.928C99.75 213.625 99.3938 213.187 98.9583 212.953C98.5229 212.719 98.1667 212.266 98.1667 211.946C98.1667 211.626 97.9114 211.365 97.5994 211.365C97.2875 211.365 96.9194 211.007 96.7813 210.57C96.6431 210.134 96.275 209.776 95.9631 209.776C95.6511 209.776 95.3958 209.491 95.3958 209.143C95.3958 208.795 95.0396 208.417 94.6042 208.303C94.1688 208.189 93.8125 207.86 93.8125 207.573C93.8125 207.285 93.4563 206.936 93.0208 206.798C92.5854 206.659 92.2292 206.387 92.2292 206.193C92.2292 205.721 90.3126 203.819 89.8364 203.819C89.6286 203.819 89.4583 203.535 89.4583 203.187C89.4583 202.839 89.1021 202.46 88.6667 202.346C88.2313 202.232 87.875 201.891 87.875 201.589C87.875 201.287 87.7107 201.04 87.5097 201.04C87.0343 201.04 84.7083 198.706 84.7083 198.229C84.7083 198.028 84.4411 197.863 84.1146 197.863C83.788 197.863 83.5208 197.578 83.5208 197.23C83.5208 196.882 83.1646 196.503 82.7292 196.39C82.2938 196.275 81.9375 195.857 81.9375 195.459C81.9375 195.062 80.8688 193.627 79.5625 192.271C78.2563 190.915 77.1875 189.653 77.1875 189.466C77.1875 189.279 76.9203 189.126 76.5938 189.126C76.2672 189.126 76 188.865 76 188.545C76 188.225 75.6659 187.784 75.2578 187.565C74.8497 187.345 74.427 186.825 74.3185 186.41C74.1459 185.747 74.4012 185.628 76.382 185.448C77.6253 185.335 79.1968 184.955 79.8744 184.603C80.8129 184.116 82.2783 183.964 86.0257 183.964C89.7319 183.964 91.0567 183.828 91.3995 183.414C91.6797 183.075 93.1305 182.758 95.188 182.586C97.2855 182.411 98.6939 182.099 98.9864 181.746C99.3502 181.306 100.772 181.184 105.524 181.184H111.598L112.799 180.006L114 178.828V172.858C114 169.575 113.84 166.888 113.645 166.888C113.449 166.888 113.227 165.355 113.15 163.48C113.041 160.803 112.862 159.964 112.318 159.565C111.937 159.285 111.625 158.837 111.625 158.567C111.625 158.299 111.269 157.624 110.833 157.069C110.398 156.513 110.042 155.834 110.042 155.559C110.042 155.284 109.791 154.963 109.485 154.846C109.179 154.728 108.806 154.071 108.656 153.386C108.506 152.702 108.14 152.048 107.842 151.933C107.545 151.818 107.193 151.384 107.061 150.967C106.93 150.55 106.542 150.209 106.199 150.209C105.857 150.209 105.379 149.963 105.137 149.661C104.454 148.809 102.81 148.594 101.724 149.215C101.183 149.525 100.334 149.962 99.8387 150.186C99.3435 150.411 98.8344 150.865 98.7078 151.196C98.5748 151.544 97.9889 151.798 97.3204 151.798C96.6815 151.798 96.0652 152.052 95.9453 152.366C95.8261 152.678 95.2525 153.131 94.6715 153.371C92.9219 154.094 91.7193 154.881 91.3508 155.541C91.1592 155.885 90.5675 156.166 90.0359 156.166C89.4979 156.166 88.8499 156.518 88.5748 156.96C88.2724 157.446 87.6518 157.755 86.9757 157.755C86.359 157.755 85.7704 158.017 85.6433 158.35C85.5178 158.678 84.989 158.946 84.4681 158.946C83.9472 158.946 83.1646 159.303 82.7292 159.74C82.2938 160.177 81.5163 160.534 81.0014 160.534C80.4864 160.534 79.6124 160.892 79.0586 161.329C78.5052 161.765 77.8988 162.123 77.7108 162.123C77.5232 162.123 76.3935 162.656 75.2004 163.307C71.6941 165.222 71.0687 165.449 69.5677 165.346C68.9668 165.306 68.8766 164.866 68.8877 162.023C68.8964 159.774 69.0824 158.506 69.4814 157.976C69.8634 157.47 70.0625 156.256 70.0625 154.434C70.0625 152.353 70.2351 151.471 70.754 150.895C71.2599 150.334 71.4847 149.262 71.5916 146.903C71.6965 144.585 71.9095 143.551 72.3477 143.23C72.7815 142.912 73.0126 141.824 73.1492 139.462C73.2604 137.528 73.5533 135.928 73.8502 135.631C75.0084 134.469 75.1011 125.871 73.9634 125.147C73.6685 124.96 71.9578 124.804 70.1615 124.8C68.2524 124.797 66.8958 124.629 66.8958 124.397C66.8958 124.144 63.5974 124 57.7917 124C51.986 124 48.6875 124.144 48.6875 124.397Z" fill="#FFE066"/>
<path fill-rule="evenodd" clip-rule="evenodd" d="M1291.69 124.397C1291.69 124.616 1291.15 124.794 1290.5 124.794C1289.79 124.794 1289.03 125.121 1288.63 125.588C1288.25 126.025 1287.77 126.39 1287.54 126.399C1287.32 126.409 1286.71 127.079 1286.2 127.889C1285.34 129.237 1285.27 129.67 1285.45 133.026C1285.55 135.041 1285.82 136.918 1286.04 137.195C1286.26 137.473 1286.57 139.041 1286.72 140.679C1286.87 142.317 1287.24 143.925 1287.52 144.253C1287.84 144.609 1288.1 146.177 1288.19 148.16C1288.3 150.733 1288.49 151.584 1289.02 151.976C1289.62 152.415 1289.71 153.223 1289.71 158.152C1289.71 163.087 1289.62 163.891 1289.02 164.35C1288.63 164.64 1287.98 164.883 1287.56 164.89C1286.68 164.904 1283.44 163.415 1282.65 162.64C1282.37 162.355 1281.83 162.123 1281.46 162.123C1281.08 162.123 1280.48 161.765 1280.1 161.329C1279.73 160.892 1279 160.534 1278.47 160.534C1277.95 160.534 1277.42 160.276 1277.3 159.96C1277.18 159.645 1276.46 159.27 1275.7 159.127C1274.95 158.984 1274.23 158.617 1274.11 158.311C1274 158.005 1273.45 157.755 1272.9 157.755C1272.35 157.755 1271.54 157.397 1271.1 156.96C1270.67 156.523 1270 156.166 1269.61 156.166C1269.22 156.166 1268.6 155.809 1268.23 155.372C1267.85 154.935 1267.12 154.578 1266.6 154.578C1266.08 154.578 1265.55 154.319 1265.43 154.004C1265.31 153.688 1264.59 153.313 1263.83 153.171C1263.07 153.028 1262.35 152.661 1262.24 152.355C1262.12 152.048 1261.58 151.798 1261.04 151.798C1260.45 151.798 1259.88 151.472 1259.63 151.004C1259.39 150.567 1258.94 150.209 1258.62 150.209C1258.3 150.209 1258.04 149.945 1258.04 149.621C1258.04 148.846 1256.47 148.48 1254.11 148.708C1252.57 148.856 1251.97 149.15 1250.98 150.246C1250.3 150.99 1249.75 152.001 1249.74 152.493C1249.73 152.986 1249.48 153.386 1249.18 153.386C1248.6 153.386 1248.15 154.211 1248.15 155.261C1248.15 155.601 1247.86 156.089 1247.51 156.345C1247.16 156.605 1246.79 157.628 1246.67 158.666C1246.55 159.686 1246.22 160.725 1245.92 160.974C1245.62 161.222 1245.38 161.811 1245.38 162.282C1245.38 162.753 1245.02 163.444 1244.58 163.818C1243.91 164.399 1243.79 164.989 1243.79 167.877C1243.79 169.865 1243.63 171.256 1243.4 171.256C1243.17 171.256 1243 172.579 1243 174.43C1243 177.122 1243.13 177.755 1243.86 178.6C1244.57 179.414 1245.09 179.596 1246.7 179.596C1248.01 179.596 1248.93 179.825 1249.42 180.273C1250.02 180.815 1251.18 180.985 1255.19 181.119C1258.23 181.22 1260.52 181.482 1261 181.784C1261.44 182.057 1263.46 182.391 1265.49 182.525C1267.78 182.676 1269.51 182.995 1270.03 183.366C1270.68 183.819 1272.05 183.964 1275.68 183.964C1280.27 183.964 1280.5 184.004 1281.39 184.955C1281.9 185.5 1282.25 186.028 1282.16 186.129C1281.51 186.834 1268.97 199.434 1266.52 201.834C1262.99 205.294 1260.02 208.692 1260.02 209.276C1260.02 209.5 1259.66 209.777 1259.23 209.891C1258.79 210.005 1258.44 210.384 1258.44 210.732C1258.44 211.08 1258.18 211.365 1257.87 211.365C1257.48 211.365 1257.22 212.063 1257.03 213.648C1256.88 214.904 1256.59 216.147 1256.38 216.411C1256.12 216.73 1256.2 217.19 1256.62 217.79C1256.97 218.285 1257.25 218.936 1257.25 219.239C1257.25 219.541 1257.69 220.318 1258.24 220.965C1259.45 222.415 1263.39 225.661 1263.93 225.661C1264.14 225.661 1264.43 226.018 1264.57 226.455C1264.71 226.892 1265.08 227.249 1265.39 227.249C1265.7 227.249 1265.96 227.396 1265.96 227.576C1265.96 227.963 1269.02 230.029 1269.59 230.029C1269.81 230.029 1270.44 230.386 1271 230.823C1271.55 231.26 1272.31 231.617 1272.69 231.617C1273.08 231.617 1273.48 231.975 1273.59 232.412C1273.72 232.887 1274.13 233.206 1274.63 233.206C1275.09 233.206 1275.46 233.384 1275.46 233.603C1275.46 233.821 1276.17 234 1277.04 234C1277.91 234 1278.63 233.821 1278.63 233.603C1278.63 233.384 1278.95 233.206 1279.35 233.206C1280.11 233.206 1281.79 231.657 1281.79 230.959C1281.79 230.733 1282.15 230.225 1282.58 229.83C1283.02 229.435 1283.38 228.765 1283.38 228.342C1283.38 227.919 1283.73 227.118 1284.17 226.563C1284.6 226.008 1284.96 225.231 1284.96 224.836C1284.96 224.442 1285.15 223.998 1285.39 223.849C1285.63 223.7 1286.08 222.975 1286.39 222.237C1286.7 221.499 1287.12 220.895 1287.32 220.895C1287.53 220.895 1287.81 220.27 1287.95 219.505C1288.1 218.709 1288.45 218.116 1288.76 218.116C1289.12 218.116 1289.31 217.654 1289.31 216.772C1289.31 215.762 1289.51 215.377 1290.1 215.221C1290.54 215.107 1290.9 214.712 1290.9 214.343C1290.9 213.975 1291.25 213.22 1291.69 212.664C1292.12 212.109 1292.48 211.343 1292.48 210.963C1292.48 210.582 1292.75 210.048 1293.07 209.776C1293.4 209.504 1293.67 209.063 1293.67 208.796C1293.67 208.528 1294.02 207.897 1294.46 207.394C1294.89 206.89 1295.25 206.22 1295.25 205.906C1295.25 205.592 1295.61 204.88 1296.04 204.325C1296.48 203.769 1296.83 203.071 1296.83 202.773C1296.83 202.475 1297.19 201.874 1297.63 201.437C1298.06 201 1298.42 200.28 1298.42 199.836C1298.42 199.392 1298.69 198.925 1299.02 198.796C1299.84 198.482 1300.79 198.609 1300.79 199.836C1300.79 200.375 1301.93 202.841 1302.38 203.117C1302.81 203.39 1303.17 203.995 1303.17 204.462C1303.17 204.929 1303.42 205.518 1303.72 205.771C1304.02 206.023 1304.39 206.894 1304.54 207.706C1304.69 208.517 1305.05 209.449 1305.33 209.776C1305.61 210.104 1305.97 210.774 1306.12 211.265C1306.26 211.757 1306.64 212.159 1306.95 212.159C1307.33 212.159 1307.52 212.6 1307.52 213.495C1307.52 214.23 1307.88 215.286 1308.31 215.841C1308.75 216.396 1309.1 217.212 1309.1 217.653C1309.1 218.095 1309.37 218.726 1309.7 219.057C1310.03 219.387 1310.41 220.22 1310.55 220.906C1310.69 221.593 1311.04 222.248 1311.34 222.362C1311.63 222.476 1311.88 222.998 1311.88 223.523C1311.88 224.048 1312.23 224.783 1312.67 225.157C1313.1 225.531 1313.46 226.237 1313.46 226.726C1313.46 227.215 1313.78 227.935 1314.17 228.326C1314.56 228.716 1315.09 229.483 1315.35 230.029C1316.02 231.431 1316.76 232.561 1317.22 232.902C1317.44 233.062 1319.26 233.196 1321.28 233.2C1324.41 233.205 1325.05 233.092 1325.73 232.412C1326.16 231.975 1326.69 231.617 1326.9 231.617C1327.11 231.617 1327.48 231.26 1327.71 230.823C1327.94 230.386 1328.38 230.029 1328.68 230.029C1329.36 230.029 1332.46 228.018 1332.46 227.576C1332.46 227.396 1332.81 227.249 1333.25 227.249C1333.69 227.249 1334.37 226.923 1334.76 226.524C1335.16 226.125 1335.79 225.684 1336.15 225.544C1336.51 225.403 1336.81 225.015 1336.81 224.68C1336.81 224.346 1337.03 224.072 1337.29 224.072C1337.56 224.072 1338.7 223.089 1339.83 221.888C1340.96 220.687 1342.08 219.704 1342.32 219.704C1342.56 219.704 1342.75 219.322 1342.75 218.854C1342.75 218.387 1343.06 217.77 1343.44 217.484C1344.1 216.989 1344.1 216.904 1343.44 215.721C1343.06 215.037 1342.75 214.23 1342.75 213.928C1342.75 213.625 1342.39 213.187 1341.96 212.953C1341.52 212.719 1341.17 212.266 1341.17 211.946C1341.17 211.626 1340.91 211.365 1340.6 211.365C1340.29 211.365 1339.92 211.007 1339.78 210.57C1339.64 210.134 1339.27 209.776 1338.96 209.776C1338.65 209.776 1338.4 209.491 1338.4 209.143C1338.4 208.795 1338.04 208.417 1337.6 208.303C1337.17 208.189 1336.81 207.86 1336.81 207.573C1336.81 207.285 1336.46 206.936 1336.02 206.798C1335.59 206.659 1335.23 206.387 1335.23 206.193C1335.23 205.721 1333.31 203.819 1332.84 203.819C1332.63 203.819 1332.46 203.535 1332.46 203.187C1332.46 202.839 1332.1 202.46 1331.67 202.346C1331.23 202.232 1330.88 201.891 1330.88 201.589C1330.88 201.287 1330.71 201.04 1330.51 201.04C1330.03 201.04 1327.71 198.706 1327.71 198.229C1327.71 198.028 1327.44 197.863 1327.11 197.863C1326.79 197.863 1326.52 197.578 1326.52 197.23C1326.52 196.882 1326.16 196.503 1325.73 196.39C1325.29 196.275 1324.94 195.857 1324.94 195.459C1324.94 195.062 1323.87 193.627 1322.56 192.271C1321.26 190.915 1320.19 189.653 1320.19 189.466C1320.19 189.279 1319.92 189.126 1319.59 189.126C1319.27 189.126 1319 188.865 1319 188.545C1319 188.225 1318.67 187.784 1318.26 187.565C1317.85 187.345 1317.43 186.825 1317.32 186.41C1317.15 185.747 1317.4 185.628 1319.38 185.448C1320.63 185.335 1322.2 184.955 1322.87 184.603C1323.81 184.116 1325.28 183.964 1329.03 183.964C1332.73 183.964 1334.06 183.828 1334.4 183.414C1334.68 183.075 1336.13 182.758 1338.19 182.586C1340.29 182.411 1341.69 182.099 1341.99 181.746C1342.35 181.306 1343.77 181.184 1348.52 181.184H1354.6L1355.8 180.006L1357 178.828V172.858C1357 169.575 1356.84 166.888 1356.64 166.888C1356.45 166.888 1356.23 165.355 1356.15 163.48C1356.04 160.803 1355.86 159.964 1355.32 159.565C1354.94 159.285 1354.63 158.837 1354.63 158.567C1354.63 158.299 1354.27 157.624 1353.83 157.069C1353.4 156.513 1353.04 155.834 1353.04 155.559C1353.04 155.284 1352.79 154.963 1352.49 154.846C1352.18 154.728 1351.81 154.071 1351.66 153.386C1351.51 152.702 1351.14 152.048 1350.84 151.933C1350.54 151.818 1350.19 151.384 1350.06 150.967C1349.93 150.55 1349.54 150.209 1349.2 150.209C1348.86 150.209 1348.38 149.963 1348.14 149.661C1347.45 148.809 1345.81 148.594 1344.72 149.215C1344.18 149.525 1343.33 149.962 1342.84 150.186C1342.34 150.411 1341.83 150.865 1341.71 151.196C1341.57 151.544 1340.99 151.798 1340.32 151.798C1339.68 151.798 1339.07 152.052 1338.95 152.366C1338.83 152.678 1338.25 153.131 1337.67 153.371C1335.92 154.094 1334.72 154.881 1334.35 155.541C1334.16 155.885 1333.57 156.166 1333.04 156.166C1332.5 156.166 1331.85 156.518 1331.57 156.96C1331.27 157.446 1330.65 157.755 1329.98 157.755C1329.36 157.755 1328.77 158.017 1328.64 158.35C1328.52 158.678 1327.99 158.946 1327.47 158.946C1326.95 158.946 1326.16 159.303 1325.73 159.74C1325.29 160.177 1324.52 160.534 1324 160.534C1323.49 160.534 1322.61 160.892 1322.06 161.329C1321.51 161.765 1320.9 162.123 1320.71 162.123C1320.52 162.123 1319.39 162.656 1318.2 163.307C1314.69 165.222 1314.07 165.449 1312.57 165.346C1311.97 165.306 1311.88 164.866 1311.89 162.023C1311.9 159.774 1312.08 158.506 1312.48 157.976C1312.86 157.47 1313.06 156.256 1313.06 154.434C1313.06 152.353 1313.24 151.471 1313.75 150.895C1314.26 150.334 1314.48 149.262 1314.59 146.903C1314.7 144.585 1314.91 143.551 1315.35 143.23C1315.78 142.912 1316.01 141.824 1316.15 139.462C1316.26 137.528 1316.55 135.928 1316.85 135.631C1318.01 134.469 1318.1 125.871 1316.96 125.147C1316.67 124.96 1314.96 124.804 1313.16 124.8C1311.25 124.797 1309.9 124.629 1309.9 124.397C1309.9 124.144 1306.6 124 1300.79 124C1294.99 124 1291.69 124.144 1291.69 124.397Z" fill="#FFE066"/>
</svg>
